<?xml version="1.0" standalone="no"?>
<!DOCTYPE svg PUBLIC "-//W3C//DTD SVG 20010904//EN"
 "http://www.w3.org/TR/2001/REC-SVG-20010904/DTD/svg10.dtd">
<svg version="1.0" xmlns="http://www.w3.org/2000/svg"
 width="200.000000pt" height="200.000000pt" viewBox="0 0 200.000000 200.000000"
 preserveAspectRatio="xMidYMid meet">
<metadata>
Created by potrace 1.11, written by Peter Selinger 2001-2013
</metadata>
<g transform="translate(0.000000,200.000000) scale(0.100000,-0.100000)"
fill="#000000" stroke="none">
<path d="M1750 1505 c-1 -5 -2 -26 -2 -45 l1 -35 -8 33 c-5 18 -11 35 -14 38
-5 5 -71 -36 -425 -267 l-104 -67 34 -26 c19 -14 58 -32 88 -39 199 -51 390
76 420 278 7 44 8 45 9 14 1 -40 -28 -132 -55 -176 -61 -96 -174 -153 -293
-147 -63 4 -144 29 -184 57 -28 19 -28 19 -17 0 13 -20 73 -63 90 -63 5 0 10
-3 10 -7 0 -5 -50 -8 -110 -8 -106 0 -127 5 -95 22 40 23 53 137 19 174 -25
28 -84 23 -84 -8 0 -8 -4 -12 -9 -9 -20 13 7 84 38 101 14 8 20 14 13 15 -26
0 -51 -21 -61 -53 -10 -28 -16 -33 -35 -30 -13 3 -33 0 -44 -6 -20 -10 -40
-54 -36 -78 1 -7 2 -24 3 -38 0 -13 14 -39 30 -57 l29 -33 -114 0 c-63 0 -114
1 -114 3 0 1 11 7 24 12 14 5 33 21 42 35 16 25 16 29 0 75 -10 27 -20 64 -22
82 -3 18 -14 45 -24 59 -19 26 -19 27 6 50 13 12 24 27 24 33 0 5 -17 -6 -37
-26 -21 -19 -46 -38 -56 -41 -10 -4 -27 -28 -39 -54 -11 -27 -29 -60 -39 -75
-19 -26 -24 -72 -12 -103 3 -10 23 -25 44 -34 l38 -17 -79 0 c-43 1 -77 2 -76
4 2 1 -30 35 -70 75 -53 51 -80 71 -95 69 -11 -2 -27 5 -35 15 -14 17 -14 16
-4 -5 6 -13 13 -33 15 -44 5 -26 32 -56 67 -74 33 -17 41 -18 32 -2 -4 7 -3 8
5 4 6 -4 9 -12 6 -17 -4 -5 4 -9 16 -9 12 0 19 -3 15 -7 -4 -5 -89 -8 -189 -8
l-182 0 -3 -37 -3 -38 105 0 105 0 102 -62 101 -63 472 0 c259 -1 484 2 499 6
16 5 71 33 122 64 l93 55 101 0 102 0 -3 38 -3 37 -191 0 -192 0 58 28 c156
74 243 244 199 387 -9 30 -18 51 -19 45z m-45 -55 c3 -5 1 -10 -4 -10 -6 0
-11 5 -11 10 0 6 2 10 4 10 3 0 8 -4 11 -10z m-151 -246 c3 -8 2 -12 -4 -9 -6
3 -10 10 -10 16 0 14 7 11 14 -7z m-521 -1 c-7 -2 -21 -2 -30 0 -10 3 -4 5 12
5 17 0 24 -2 18 -5z m331 -19 c3 -8 2 -12 -4 -9 -6 3 -10 10 -10 16 0 14 7 11
14 -7z m-949 -88 c6 -4 -1 -3 -15 4 -28 15 -50 35 -50 46 0 6 13 -4 65 -50z
m1093 -151 l-37 -25 -468 0 -468 0 -40 25 -40 24 545 1 545 0 -37 -25z"/>
<path d="M880 1350 c0 -15 49 -48 82 -55 40 -9 55 12 29 39 -20 19 -111 33
-111 16z"/>
<path d="M830 738 c0 -13 8 -18 29 -18 24 0 28 3 24 20 -7 26 -53 24 -53 -2z"/>
<path d="M979 747 c-9 -7 -20 -27 -23 -45 -4 -17 -14 -32 -21 -32 -7 0 -12 -8
-10 -17 1 -10 8 -17 14 -15 12 2 14 -8 13 -78 0 -24 -5 -46 -11 -48 -6 -2 -11
-11 -11 -20 0 -14 10 -17 50 -17 41 0 50 3 50 18 0 9 -6 17 -12 17 -14 0 -19
119 -5 121 4 1 12 2 19 3 20 2 18 36 -3 36 -25 0 -26 38 -1 47 20 8 33 24 26
35 -8 12 -57 9 -75 -5z"/>
<path d="M1570 743 c0 -7 7 -16 15 -19 9 -4 15 -19 15 -36 0 -25 -3 -29 -17
-23 -70 30 -122 -48 -97 -143 9 -32 56 -55 88 -42 14 5 36 6 49 2 12 -5 30 -7
40 -4 20 4 23 28 5 35 -10 3 -13 36 -13 123 l0 119 -43 1 c-30 1 -42 -2 -42
-13z m28 -165 c2 -38 -1 -49 -17 -57 -27 -15 -51 10 -51 53 0 38 17 58 45 54
16 -2 21 -12 23 -50z"/>
<path d="M320 725 c0 -9 6 -18 14 -21 21 -8 20 -183 0 -191 -8 -3 -14 -11 -14
-19 0 -14 7 -16 55 -16 48 0 55 2 55 17 0 8 -7 15 -16 15 -12 0 -14 9 -12 38
3 36 4 37 43 37 22 1 45 -1 51 -3 16 -5 15 -62 -2 -69 -8 -3 -14 -13 -14 -22
0 -12 8 -16 28 -15 15 1 39 3 55 3 28 1 40 31 12 31 -12 0 -15 17 -15 95 0 76
3 97 15 101 8 4 15 12 15 20 0 10 -15 14 -55 14 -43 0 -55 -3 -55 -15 0 -9 6
-18 13 -21 8 -3 14 -20 14 -39 l0 -35 -54 0 -53 0 0 40 c0 26 4 39 12 38 6 -2
14 5 16 15 3 15 -4 17 -52 17 -44 0 -56 -3 -56 -15z"/>
<path d="M673 668 c-21 -5 -38 -19 -48 -38 -47 -92 25 -180 122 -149 43 14 34
43 -11 36 -36 -5 -66 7 -66 28 0 11 13 15 55 15 l55 0 0 35 c0 57 -47 89 -107
73z m57 -63 c0 -10 -10 -15 -30 -15 -31 0 -39 17 -18 38 14 14 48 -2 48 -23z"/>
<path d="M838 672 c-39 -3 -52 -24 -23 -36 23 -9 21 -121 -2 -131 -17 -6 -17
-7 -1 -19 9 -6 29 -11 45 -10 15 1 34 3 41 3 16 1 16 27 -1 34 -8 3 -13 31
-14 82 -2 43 -4 78 -5 79 -2 1 -20 0 -40 -2z"/>
<path d="M1111 663 c-40 -20 -53 -62 -39 -128 11 -48 64 -72 117 -54 67 23 79
146 18 178 -36 19 -62 20 -96 4z m76 -61 c12 -37 5 -70 -16 -82 -29 -15 -53
10 -53 55 0 64 51 84 69 27z"/>
<path d="M1323 663 c-67 -32 -69 -144 -2 -179 56 -28 113 2 128 68 19 84 -52
147 -126 111z m71 -49 c16 -42 -4 -104 -33 -104 -29 0 -45 60 -28 104 8 21 53
21 61 0z"/>
</g>
</svg>
